# xmcd
#
# Track frame offsets: 
#        183
#        46425
#        55783
#        75623
#        92610
#        103323
#        116558
#        127900
#        141793
#
# Disc length: 2239 seconds
#
# Revision: 2
# Processed by: cddbd v1.5.1PL0 Copyright (c) Steve Scherf et al.
# Submitted via: ExactAudioCopy v0.95a5
#
DISCID=7308bd09
DTITLE=King, B.B. - Lucille
DYEAR=1968
DGENRE=Blues
TTITLE0=Lucille
TTITLE1=You Move Me So
TTITLE2=Country Girl
TTITLE3=No Money, No Luck Blues
TTITLE4=I Need Your Love
TTITLE5=Rainin' All The Time
TTITLE6=I'm With You
TTITLE7=Stop Putting The Hurt On Me
TTITLE8=Watch Yourself
EXTD=
EXTT0=
EXTT1=
EXTT2=
EXTT3=
EXTT4=
EXTT5=
EXTT6=
EXTT7=
EXTT8=
PLAYORDER=
